<svg xmlns="http://www.w3.org/2000/svg" viewBox="0 0 32 32">
  <defs>
    <!-- Clip path pour les bords arrondis -->
    <clipPath id="roundedCorners">
      <rect x="0" y="0" width="32" height="32" rx="6" ry="6"/>
    </clipPath>
    
    <!-- Dégradé du ciel -->
    <linearGradient id="skyGrad" x1="0%" y1="0%" x2="0%" y2="100%">
      <stop offset="0%" stop-color="#0a1446"/>
      <stop offset="50%" stop-color="#4b2b7f"/>
      <stop offset="80%" stop-color="#ff6a00"/>
      <stop offset="100%" stop-color="#ffd36b"/>
    </linearGradient>
    
    <!-- Dégradé du soleil -->
    <radialGradient id="sunGrad" cx="50%" cy="50%" r="50%">
      <stop offset="0%" stop-color="#fffef0"/>
      <stop offset="70%" stop-color="#fff8d0"/>
      <stop offset="100%" stop-color="#ffe8a0"/>
    </radialGradient>
    
    <!-- Dégradé de la mer -->
    <linearGradient id="seaGrad" x1="0%" y1="0%" x2="0%" y2="100%">
      <stop offset="0%" stop-color="#3a8ae8"/>
      <stop offset="100%" stop-color="#2566a8"/>
    </linearGradient>
    
    <!-- Dégradé de la terrasse -->
    <linearGradient id="deckGrad" x1="0%" y1="0%" x2="0%" y2="100%">
      <stop offset="0%" stop-color="#9fa4aa"/>
      <stop offset="100%" stop-color="#6a7078"/>
    </linearGradient>
  </defs>
  
  <g clip-path="url(#roundedCorners)">
    <!-- Ciel -->
    <rect x="0" y="0" width="32" height="16" fill="url(#skyGrad)"/>
    
    <!-- Soleil agrandi -->
    <circle cx="16" cy="11" r="5" fill="url(#sunGrad)"/>
    
    <!-- Mer -->
    <rect x="0" y="16" width="32" height="7" fill="url(#seaGrad)"/>
    
    <!-- Reflet du soleil sur l'eau -->
    <rect x="15" y="16" width="2" height="0.8" fill="rgba(255, 235, 80, 0.9)"/>
    <rect x="14.5" y="16.8" width="3" height="0.8" fill="rgba(255, 235, 80, 0.8)"/>
    <rect x="14" y="17.6" width="4" height="0.8" fill="rgba(255, 235, 80, 0.7)"/>
    <rect x="13.5" y="18.4" width="5" height="0.8" fill="rgba(255, 235, 80, 0.6)"/>
    <rect x="13" y="19.2" width="6" height="0.8" fill="rgba(255, 235, 80, 0.5)"/>
    <rect x="12.5" y="20" width="7" height="0.8" fill="rgba(255, 235, 80, 0.4)"/>
    <rect x="12" y="20.8" width="8" height="0.8" fill="rgba(255, 235, 80, 0.3)"/>
    <rect x="11.5" y="21.6" width="9" height="0.8" fill="rgba(255, 235, 80, 0.2)"/>
    <rect x="11" y="22.4" width="10" height="0.6" fill="rgba(255, 235, 80, 0.15)"/>
    
    <!-- Terrasse en pierre -->
    <rect x="0" y="23" width="32" height="9" fill="url(#deckGrad)"/>
    
    <!-- Texture de la terrasse (traits de pierre) -->
    <g opacity="0.15">
      <line x1="2" y1="25" x2="8" y2="25" stroke="#ddd" stroke-width="0.3"/>
      <line x1="10" y1="26" x2="16" y2="26" stroke="#ccc" stroke-width="0.3"/>
      <line x1="18" y1="25" x2="24" y2="25" stroke="#ddd" stroke-width="0.3"/>
      <line x1="26" y1="27" x2="30" y2="27" stroke="#ccc" stroke-width="0.3"/>
      <line x1="1" y1="28" x2="7" y2="28" stroke="#ddd" stroke-width="0.3"/>
      <line x1="9" y1="29" x2="15" y2="29" stroke="#ccc" stroke-width="0.3"/>
      <line x1="17" y1="28" x2="23" y2="28" stroke="#ddd" stroke-width="0.3"/>
      <line x1="25" y1="30" x2="31" y2="30" stroke="#ccc" stroke-width="0.3"/>
    </g>
    
    <!-- Ombrage subtil sur la terrasse -->
    <rect x="0" y="23" width="32" height="9" fill="url(#deckGrad)" opacity="0.1"/>
  </g>
</svg>
